<svg width="46" height="16" viewBox="0 0 46 16" fill="none" xmlns="http://www.w3.org/2000/svg">
<g id="Logo / Default" clip-path="url(#clip0_3101_345)">
<g id="img_logo">
<g id="logo">
<g id="&#234;&#183;&#184;&#235;&#163;&#185; 5598">
<mask id="mask0_3101_345" style="mask-type:luminance" maskUnits="userSpaceOnUse" x="0" y="2" width="46" height="12">
<path id="clip-path" d="M0 2.24219H45.8296V13.759H0V2.24219Z" fill="white"/>
</mask>
<g mask="url(#mask0_3101_345)">
<g id="Group">
<path id="&#237;&#140;&#168;&#236;&#138;&#164; 4595" d="M30.027 8.7347L32.2591 13.3509H35.7274V2.52148H32.407V7.02952C32.4071 7.09766 32.3847 7.16384 32.3435 7.21728C32.3022 7.27071 32.2445 7.30826 32.1798 7.32379C32.115 7.33932 32.0471 7.33192 31.987 7.30281C31.9268 7.27369 31.8781 7.22457 31.8487 7.16345L29.6052 2.52148H26.1369V13.3504H29.4672V8.86809C29.4672 8.79999 29.4896 8.7339 29.5309 8.68055C29.5722 8.62721 29.6299 8.58976 29.6947 8.5743C29.7594 8.55884 29.8273 8.56627 29.8873 8.5954C29.9474 8.62452 29.9961 8.67362 30.0255 8.7347" fill="white"/>
<path id="&#236;&#130;&#172;&#234;&#176;&#129;&#237;&#152;&#149; 4338" d="M21.0006 2.52148H24.6424V13.3504H21.0006V2.52148Z" fill="white"/>
<path id="&#237;&#140;&#168;&#236;&#138;&#164; 4596" d="M36.8037 6.9103V8.90637C36.8037 10.8478 37.5182 12.2514 38.927 13.0774C41.1747 14.3958 44.4114 13.5821 45.8301 12.5069V7.46744H42.5411V10.6367L42.4784 10.6619C42.2171 10.7658 41.9365 10.8084 41.6571 10.7866C41.3777 10.7648 41.1066 10.6792 40.8637 10.536C40.635 10.347 40.4564 10.1022 40.344 9.82399C40.2317 9.54582 40.1893 9.2432 40.2207 8.94387V6.71047C40.188 6.42041 40.2591 6.12802 40.4209 5.88768C40.5828 5.64735 40.8242 5.47542 41.1005 5.40387C41.401 5.3297 41.7177 5.37524 41.9867 5.53127C42.2557 5.68731 42.4569 5.9422 42.5495 6.2444L45.7355 4.49315C45.3298 3.7707 44.7363 3.17783 44.0212 2.78058C43.3062 2.38333 42.4976 2.19728 41.6854 2.24315C41.4706 2.24315 41.2615 2.25387 41.0623 2.27208C39.9854 2.33803 38.9577 2.75704 38.1309 3.46726C37.6831 3.911 37.3332 4.44786 37.1047 5.04174C36.8762 5.63562 36.7745 6.27276 36.8063 6.9103" fill="white"/>
<path id="&#237;&#140;&#168;&#236;&#138;&#164; 4597" d="M9.03639 2.52148H0V5.69184H2.71818V13.3526H6.31298V5.69184H9.03377L9.03639 2.52148Z" fill="white"/>
<path id="&#237;&#140;&#168;&#236;&#138;&#164; 4598" d="M13.2072 13.4721L15.4842 6.22123C15.5054 6.15238 15.5499 6.09358 15.6098 6.05553C15.6696 6.01747 15.7408 6.00267 15.8104 6.01383C15.88 6.02498 15.9434 6.06134 15.989 6.1163C16.0347 6.17126 16.0596 6.24119 16.0592 6.31337L16.0592 13.4727L19.5124 13.4727L19.5124 2.64319L12.983 2.64319L9.4091 13.4721L13.2072 13.4721Z" fill="white"/>
</g>
</g>
</g>
</g>
</g>
</g>
<defs>
<clipPath id="clip0_3101_345">
<rect width="46" height="15" fill="white" transform="translate(0 0.5)"/>
</clipPath>
</defs>
</svg>
