<svg width="77" height="24" viewBox="0 0 77 24" fill="none" xmlns="http://www.w3.org/2000/svg">
<g id="img_logo">
<g id="logo">
<g id="&#234;&#183;&#184;&#235;&#163;&#185; 5598">
<mask id="mask0_3101_1409" style="mask-type:luminance" maskUnits="userSpaceOnUse" x="0" y="2" width="77" height="20">
<path id="clip-path" d="M0 2.78711H76.7148V21.214H0V2.78711Z" fill="white"/>
</mask>
<g mask="url(#mask0_3101_1409)">
<g id="Group">
<path id="&#237;&#140;&#168;&#236;&#138;&#164; 4595" d="M50.2626 13.1716L53.9989 20.5576H59.8045V3.23047H54.2465V10.4433C54.2467 10.5524 54.2092 10.6582 54.1402 10.7437C54.0711 10.8292 53.9745 10.8893 53.8662 10.9142C53.7578 10.939 53.644 10.9272 53.5434 10.8806C53.4428 10.834 53.3612 10.7554 53.312 10.6576L49.5565 3.23047H43.7509V20.5568H49.3255V13.385C49.3255 13.2761 49.3631 13.1703 49.4322 13.085C49.5014 12.9996 49.598 12.9397 49.7063 12.915C49.8146 12.8902 49.9283 12.9021 50.0288 12.9487C50.1293 12.9953 50.2108 13.0739 50.26 13.1716" fill="white"/>
<path id="&#236;&#130;&#172;&#234;&#176;&#129;&#237;&#152;&#149; 4338" d="M35.1531 3.23047H41.2492V20.5568H35.1531V3.23047Z" fill="white"/>
<path id="&#237;&#140;&#168;&#236;&#138;&#164; 4596" d="M61.6061 10.2537V13.4475C61.6061 16.5537 62.8023 18.7995 65.1604 20.1212C68.9229 22.2306 74.3409 20.9286 76.7156 19.2083V11.1452H71.2101V16.216L71.1051 16.2563C70.6678 16.4225 70.1981 16.4907 69.7304 16.4558C69.2627 16.4209 68.8089 16.284 68.4022 16.0549C68.0195 15.7524 67.7204 15.3607 67.5324 14.9157C67.3444 14.4706 67.2734 13.9864 67.326 13.5075V9.93402C67.2712 9.46992 67.3903 9.0021 67.6611 8.61756C67.932 8.23302 68.3362 7.95793 68.7986 7.84345C69.3016 7.72479 69.8319 7.79765 70.2821 8.04731C70.7324 8.29696 71.0691 8.70478 71.2241 9.18831L76.5572 6.38631C75.8781 5.23038 74.8847 4.2818 73.6877 3.6462C72.4908 3.01059 71.1372 2.71292 69.7778 2.78631C69.4181 2.78631 69.0681 2.80345 68.7348 2.8326C66.9321 2.93812 65.2118 3.60853 63.8277 4.74488C63.0782 5.45487 62.4925 6.31385 62.11 7.26405C61.7276 8.21426 61.5572 9.23367 61.6105 10.2537" fill="white"/>
<path id="&#237;&#140;&#168;&#236;&#138;&#164; 4597" d="M15.1261 3.23047H0V8.30304H4.55V20.5602H10.5674V8.30304H15.1217L15.1261 3.23047Z" fill="white"/>
<path id="&#237;&#140;&#168;&#236;&#138;&#164; 4598" d="M22.1078 20.753L25.9193 9.15162C25.9547 9.04146 26.0292 8.94739 26.1294 8.8865C26.2296 8.82561 26.3488 8.80193 26.4652 8.81978C26.5817 8.83762 26.6878 8.89579 26.7642 8.98374C26.8407 9.07168 26.8824 9.18356 26.8818 9.29905L26.8818 20.7539L32.662 20.7539L32.662 3.42676L21.7324 3.42676L15.75 20.753L22.1078 20.753Z" fill="white"/>
</g>
</g>
</g>
</g>
</g>
</svg>
