<svg width="50" height="50" viewBox="0 0 50 50" fill="none" xmlns="http://www.w3.org/2000/svg">
<g id="Icon / Profile_Edit" clip-path="url(#clip0_2928_2916)">
<path id="Vector" d="M38.3304 39.8867H11.1094V19.4707H38.3304V39.8857V39.8867ZM24.7614 26.4427C24.2309 26.4427 23.7222 26.6534 23.3472 27.0285C22.9721 27.4036 22.7614 27.9123 22.7614 28.4427V31.5707C22.7614 32.1011 22.9721 32.6098 23.3472 32.9849C23.7222 33.36 24.2309 33.5707 24.7614 33.5707H24.8324C25.3628 33.5707 25.8715 33.36 26.2466 32.9849C26.6217 32.6098 26.8324 32.1011 26.8324 31.5707V28.4437C26.8324 27.9133 26.6217 27.4046 26.2466 27.0295C25.8715 26.6544 25.3628 26.4437 24.8324 26.4437L24.7614 26.4427Z" fill="white"/>
<path id="Vector_2" d="M24.7943 9.14062C26.9537 9.14063 29.0247 9.99844 30.5516 11.5254C32.0785 13.0523 32.9363 15.1232 32.9363 17.2826V22.3716C32.9363 26.8716 16.8573 23.1366 16.6523 22.3716V17.2826C16.6523 15.1232 17.5102 13.0523 19.0371 11.5254C20.564 9.99844 22.635 9.14063 24.7943 9.14062V9.14062Z" stroke="white" stroke-width="4"/>
</g>
<defs>
<clipPath id="clip0_2928_2916">
<rect width="50" height="50" fill="white"/>
</clipPath>
</defs>
</svg>
