<svg width="50" height="50" viewBox="0 0 50 50" fill="none" xmlns="http://www.w3.org/2000/svg">
<g id="Device=Mobile &#38; Tablet, Name=Pencil" clip-path="url(#clip0_103_5814)">
<path id="Vector" d="M8.55831 34.9058L7.69531 42.5148H15.2803L37.6503 20.1448L30.0653 12.5598L8.55831 34.9058ZM41.1493 16.6448C41.6475 16.1468 42.0427 15.5556 42.3124 14.9049C42.582 14.2541 42.7208 13.5567 42.7208 12.8523C42.7208 12.1479 42.582 11.4504 42.3124 10.7997C42.0427 10.1489 41.6475 9.55771 41.1493 9.05977C40.6514 8.56156 40.0601 8.16635 39.4094 7.89671C38.7587 7.62707 38.0612 7.48828 37.3568 7.48828C36.6524 7.48828 35.9549 7.62707 35.3042 7.89671C34.6535 8.16635 34.0623 8.56156 33.5643 9.05977L32.2293 10.3948L39.8143 17.9798L41.1493 16.6448Z" fill="white"/>
</g>
<defs>
<clipPath id="clip0_103_5814">
<rect width="50" height="50" fill="white"/>
</clipPath>
</defs>
</svg>
