<svg width="20" height="20" viewBox="0 0 20 20" fill="none" xmlns="http://www.w3.org/2000/svg">
<g id="icon_menu_live">
<g id="icon">
<g id="LIVE">
<path id="&#237;&#140;&#168;&#236;&#138;&#164;_1422" d="M6.47049 13.7461H3.83301V9.49609H4.493V13.1736H6.47135L6.47049 13.7461Z" fill="#C4C4C4" stroke="#C4C4C4" stroke-width="0.2" stroke-linejoin="round"/>
<path id="&#237;&#140;&#168;&#236;&#138;&#164;_1423" d="M7.34277 13.7461V9.49609H8.00277V13.7461H7.34277Z" fill="#C4C4C4" stroke="#C4C4C4" stroke-width="0.2" stroke-linejoin="round"/>
<path id="&#237;&#140;&#168;&#236;&#138;&#164;_1424" d="M10.3899 13.7461L8.87402 9.49609H9.58986L10.7465 13.0028H10.7649L11.9249 9.49609H12.6291L11.1124 13.7461H10.3899Z" fill="#C4C4C4" stroke="#C4C4C4" stroke-width="0.2" stroke-linejoin="round"/>
<path id="&#237;&#140;&#168;&#236;&#138;&#164;_1425" d="M16.1976 13.7461H13.501V9.49609H16.1976V10.0644H14.161V11.3069H16.0893V11.8519H14.161V13.1711H16.1976V13.7461Z" fill="#C4C4C4" stroke="#C4C4C4" stroke-width="0.2" stroke-linejoin="round"/>
</g>
<g id="TV" opacity="0.901">
<g id="&#236;&#130;&#172;&#234;&#176;&#129;&#237;&#152;&#149;_2321" opacity="0.998">
<path id="Vector" d="M17.5 5.49902H2.5C1.39543 5.49902 0.5 6.39445 0.5 7.49902V15.8324C0.5 16.9369 1.39543 17.8324 2.5 17.8324H17.5C18.6046 17.8324 19.5 16.9369 19.5 15.8324V7.49902C19.5 6.39445 18.6046 5.49902 17.5 5.49902Z" stroke="#C4C4C4" stroke-width="1.2" stroke-linecap="round" stroke-linejoin="round"/>
</g>
<g id="antennae" opacity="0.998">
<path id="&#236;&#132;&#160;_34" d="M9.37884 5.41699L6.83301 2.91699" stroke="#C4C4C4" stroke-width="1.2" stroke-linecap="round" stroke-linejoin="round"/>
<path id="&#236;&#132;&#160;_35" d="M10.5791 5.41699L13.1249 2.91699" stroke="#C4C4C4" stroke-width="1.2" stroke-linecap="round" stroke-linejoin="round"/>
</g>
</g>
</g>
</g>
</svg>
