<svg width="65" height="15" viewBox="0 0 65 15" fill="none" xmlns="http://www.w3.org/2000/svg">
<g id="group">
<path id="&#237;&#140;&#168;&#236;&#138;&#164; 4847" fill-rule="evenodd" clip-rule="evenodd" d="M16.4038 3.82014C16.4038 1.23681 13.7059 0.000976562 10.4995 0.000976562C7.07259 0.000976562 3.93366 1.53181 2.78012 3.92264C2.45594 4.56119 2.2867 5.2688 2.28645 5.98681C2.27704 6.60277 2.4489 7.20763 2.78012 7.72431C3.0896 8.13862 3.49796 8.46648 3.96685 8.67711C4.43575 8.88774 4.9498 8.97424 5.46075 8.92848C7.03885 8.92848 8.31088 8.05098 8.31088 6.50348C8.31198 6.44226 8.30003 6.38153 8.27585 6.32541C8.25168 6.2693 8.21583 6.21913 8.17077 6.17831C8.12572 6.1375 8.0725 6.10701 8.01475 6.08892C7.957 6.07083 7.89607 6.06556 7.83613 6.07348C7.42885 6.07348 7.32765 6.36598 7.34246 6.50348C7.37895 6.77833 7.35646 7.05792 7.27651 7.32316C7.19656 7.5884 7.06105 7.83304 6.87921 8.04039C6.69738 8.24773 6.47351 8.41289 6.22289 8.5246C5.97227 8.6363 5.7008 8.69192 5.42702 8.68764C4.01923 8.68764 3.42518 7.46598 3.42518 6.15931C3.42518 3.49264 5.41056 1.73848 7.46341 0.96431C8.42865 0.598658 9.45256 0.417811 10.483 0.430977C12.8247 0.430977 14.7245 1.34264 14.7245 3.76431C14.6947 4.76578 14.3 5.72064 13.6163 6.44478C12.9326 7.16892 12.0084 7.61107 11.022 7.68598L11.1042 7.41098C11.4507 5.88003 12.0409 4.41644 12.8518 3.07764C12.9147 2.96695 12.9886 2.86308 13.0723 2.76764L12.9539 2.63014C12.7736 2.73475 12.6031 2.85581 12.4445 2.99181C8.57746 6.03681 8.45733 14.6376 3.31658 14.6376C3.14064 14.644 2.96451 14.6326 2.79082 14.6035C2.32241 14.5636 1.88799 14.3398 1.58047 13.9797C1.27294 13.6196 1.11673 13.152 1.14525 12.6768C1.14525 12.4876 1.21354 12.2126 1.21354 12.0576C1.21697 11.9873 1.2064 11.917 1.18245 11.8509C1.15851 11.7848 1.12169 11.7243 1.07417 11.6729C1.02665 11.6215 0.969415 11.5803 0.905862 11.5518C0.84231 11.5232 0.77374 11.508 0.704233 11.5068H0.65898C0.200689 11.5068 0.0139169 11.8851 0.000752328 12.401C-0.0329819 13.9318 1.07037 14.8093 2.78341 14.9843C2.97018 14.9843 3.15695 15.0018 3.35936 15.0018C7.38031 15.0018 9.84044 11.9226 10.8928 8.19014C11.4222 8.11863 11.9451 8.00352 12.4561 7.84598C14.3221 7.33014 16.4054 6.05681 16.4054 3.82098" fill="#C4C4C4"/>
<path id="&#237;&#140;&#168;&#236;&#138;&#164; 4848" fill-rule="evenodd" clip-rule="evenodd" d="M39.765 8.56586C39.54 9.91871 39.0246 11.2051 38.2552 12.3342C37.9499 12.7984 37.6792 12.9175 37.4414 12.9175C37.1024 12.9175 37.0177 12.6425 37.0679 12.2509C37.304 10.9986 37.795 9.80973 38.5094 8.76003C38.8829 8.24419 39.1199 8.03753 39.4087 8.03753C39.6802 8.03753 39.765 8.27836 39.765 8.57086M24.1263 12.5259C23.9231 12.5259 23.77 12.4567 23.77 12.1817C23.9466 11.0984 24.3964 10.0797 25.0758 9.22419C25.2771 8.89403 25.5495 8.61427 25.8726 8.40587C26.1958 8.19748 26.5614 8.06586 26.9419 8.02086L26.0434 10.05C25.3646 11.615 24.6693 12.5259 24.1263 12.5259ZM15.3061 12.5259C15.1028 12.5259 14.9671 12.4567 14.9671 12.1817C15.1588 11.1031 15.607 10.088 16.2728 9.22419C16.4741 8.89403 16.7465 8.61427 17.0697 8.40587C17.3928 8.19748 17.7584 8.06586 18.1389 8.02086L17.2569 10.05C16.5781 11.58 15.8491 12.5259 15.3061 12.5259ZM55.4876 5.63086H54.0625L53.7573 6.38753L53.1978 7.66003H52.5395L52.3363 8.09003H53.0316L52.2005 9.93003C51.6065 11.2367 50.6907 12.5134 50.165 12.5134C50.0465 12.5134 49.9782 12.4617 49.9782 12.3417C49.9975 12.1508 50.0492 11.9647 50.1312 11.7917C50.3007 11.3959 50.5723 10.8284 50.7755 10.3992C51.132 9.77305 51.3896 9.09429 51.539 8.38752C51.5451 8.2724 51.5266 8.1573 51.4848 8.05006C51.443 7.94282 51.3789 7.84595 51.2968 7.76602C51.2148 7.6861 51.1168 7.62499 51.0093 7.58686C50.9019 7.54873 50.7876 7.53446 50.6743 7.54503C50.3266 7.57487 49.9889 7.67736 49.6823 7.84603C49.3757 8.0147 49.1069 8.2459 48.8929 8.52503L49.2492 7.66502H47.9064L46.8212 10.1584C46.3966 11.0425 45.5146 12.5009 44.9551 12.5009C44.8366 12.5009 44.7856 12.4317 44.7856 12.3117C44.7971 12.205 44.8249 12.1007 44.8679 12.0025C44.9189 11.8992 45.5631 10.3517 45.5631 10.3517L46.7331 7.61753H45.3081L44.1562 10.2842C43.8172 11.1092 42.922 12.5025 42.3411 12.5025C42.3164 12.5063 42.2912 12.5047 42.2671 12.4979C42.243 12.4911 42.2206 12.4792 42.2014 12.463C42.1822 12.4467 42.1666 12.4266 42.1557 12.4038C42.1447 12.381 42.1387 12.3562 42.1379 12.3309V12.2967C42.1658 12.0868 42.229 11.8833 42.3247 11.695L42.9187 10.3542L44.1529 7.62003H42.7278L42.4563 8.23919C42.3679 8.48224 42.2151 8.69591 42.0147 8.85674C41.8142 9.01757 41.5739 9.11934 41.32 9.15086C41.0485 9.15086 40.9128 9.04752 40.8626 8.94419C40.8617 8.74904 40.8211 8.55617 40.7433 8.37761C40.6656 8.19905 40.5524 8.03862 40.4107 7.90633C40.2691 7.77404 40.102 7.67273 39.92 7.6087C39.738 7.54467 39.5449 7.51931 39.3528 7.53419C38.8287 7.54866 38.3173 7.70044 37.8684 7.97471C37.4195 8.24899 37.0485 8.63641 36.7914 9.09919C36.4169 9.68328 36.131 10.3209 35.9431 10.9909C35.4347 11.8334 34.9081 12.4909 34.4843 12.4909C34.459 12.4946 34.433 12.4924 34.4087 12.4842C34.3843 12.476 34.3622 12.4622 34.344 12.4438C34.3259 12.4254 34.3122 12.403 34.3041 12.3783C34.2961 12.3537 34.2938 12.3274 34.2976 12.3017C34.3316 12.0991 34.3945 11.9026 34.4843 11.7184L35.4174 9.70669C35.6494 9.26222 35.7989 8.77836 35.8584 8.27919C35.8604 8.17718 35.8412 8.07589 35.802 7.9819C35.7628 7.8879 35.7046 7.8033 35.631 7.7336C35.5574 7.66389 35.4702 7.61063 35.375 7.57728C35.2798 7.54393 35.1788 7.53124 35.0784 7.54003C34.696 7.56758 34.3231 7.67317 33.982 7.85047C33.641 8.02776 33.3389 8.27309 33.0938 8.57169C33.1217 8.4712 33.1331 8.36676 33.1276 8.26253C33.141 8.16306 33.1312 8.06178 33.0991 7.96681C33.067 7.87184 33.0133 7.7858 32.9425 7.71558C32.8716 7.64537 32.7856 7.59292 32.6911 7.56243C32.5967 7.53195 32.4965 7.52428 32.3986 7.54003C32.0409 7.57094 31.6939 7.67899 31.3808 7.85693C31.0678 8.03487 30.7959 8.27858 30.5835 8.57169L30.9562 7.64336H29.6669L28.5644 10.1534C28.0386 11.32 27.2076 12.4917 26.7329 12.4917C26.6309 12.4917 26.5634 12.44 26.5634 12.3025C26.6354 11.9518 26.7492 11.6112 26.9024 11.2884L28.3612 7.95502C28.4632 7.69669 27.7671 7.53836 26.8851 7.53836C25.949 7.5853 25.0569 7.95557 24.3575 8.58753C24.0767 8.87571 23.7256 9.08332 23.3397 9.18919C23.2574 9.18919 23.2212 9.13753 23.2212 9.08586C23.2212 8.87919 23.696 8.31253 23.696 7.86503C23.696 7.65836 23.594 7.53836 23.3224 7.53836C22.6879 7.6595 22.1234 8.02248 21.7452 8.55253L22.1187 7.64086H20.8467L19.7672 10.1484C19.2414 11.315 18.3767 12.5559 17.9184 12.5559C17.7999 12.5559 17.7316 12.4867 17.7316 12.3492C17.8057 11.9778 17.9315 11.6189 18.1052 11.2834L19.5467 7.95003C19.6487 7.69169 18.9526 7.53336 18.0714 7.53336C17.4317 7.57437 16.8091 7.75922 16.2488 8.07447C15.6884 8.38972 15.2045 8.82746 14.8321 9.35586C14.1322 10.1748 13.6894 11.1865 13.5601 12.2617C13.5411 12.4085 13.5547 12.5577 13.6 12.6985C13.6454 12.8392 13.7212 12.9679 13.8221 13.0751C13.9229 13.1822 14.0462 13.2652 14.1828 13.3178C14.3194 13.3704 14.466 13.3914 14.6116 13.3792C14.974 13.3382 15.3229 13.2168 15.6337 13.0237C15.9444 12.8305 16.2093 12.5704 16.4094 12.2617C16.3842 12.3575 16.3672 12.4554 16.3584 12.5542C16.3584 13.0359 16.5452 13.3792 17.1219 13.3792C17.4688 13.3242 17.8004 13.1966 18.0958 13.0044C18.3912 12.8123 18.6438 12.5599 18.8374 12.2634L18.4137 13.2775H19.7878L21.1412 10.1675C21.5823 9.15336 22.0907 8.63752 22.2265 8.63752C22.2775 8.63752 22.3088 8.65502 22.3088 8.68919C22.3088 8.79252 22.0883 9.08502 22.0883 9.34252C22.0883 9.60002 22.224 9.80669 22.614 9.80669C22.9424 9.78147 23.2583 9.66877 23.5298 9.48003C22.8731 10.269 22.4655 11.2395 22.3598 12.2659C22.3378 12.4132 22.3494 12.5636 22.3937 12.7057C22.438 12.8478 22.5137 12.9777 22.6152 13.0856C22.7167 13.1934 22.8412 13.2763 22.9792 13.3279C23.1172 13.3795 23.265 13.3985 23.4113 13.3834C23.7793 13.3199 24.1304 13.1803 24.4427 12.9733C24.7549 12.7662 25.0217 12.4962 25.2264 12.18C25.2067 12.2937 25.1955 12.4088 25.1926 12.5242C25.1827 12.6352 25.1961 12.747 25.232 12.8524C25.2678 12.9578 25.3253 13.0543 25.4006 13.1355C25.4759 13.2168 25.5674 13.2809 25.669 13.3238C25.7705 13.3666 25.8799 13.3872 25.9899 13.3842C26.584 13.3842 27.0414 13.0059 27.6355 12.2842L27.1945 13.2842H28.6195L29.9088 10.3092C30.4683 9.02002 31.2492 8.33169 31.6219 8.33169C31.7042 8.31419 31.7914 8.40086 31.8086 8.48669V8.52086C31.7873 8.66869 31.7474 8.81317 31.6902 8.95086L29.8241 13.3009H31.2829L32.5886 10.275C33.1646 8.96836 33.7932 8.33169 34.2507 8.33169C34.4029 8.33169 34.4539 8.40086 34.4539 8.55503C34.4427 8.72139 34.4026 8.88445 34.3354 9.03669L33.0634 11.7867C32.941 12.0458 32.8663 12.3254 32.8429 12.6117C32.8429 13.0417 33.0634 13.4025 33.7076 13.4025C34.5214 13.4025 35.1492 12.7667 35.8617 11.8375V12.0267C35.8612 12.2271 35.9028 12.4253 35.9835 12.6082C36.0643 12.7911 36.1824 12.9546 36.3302 13.0878C36.4779 13.2211 36.6519 13.3211 36.8406 13.3812C37.0293 13.4414 37.2285 13.4603 37.425 13.4367C38.7307 13.4367 39.7658 12.5425 40.41 11.0984C40.6447 10.5868 40.7993 10.0414 40.8683 9.48169C41.0102 9.55198 41.1686 9.58084 41.3258 9.56503C41.5399 9.57517 41.7522 9.52127 41.9363 9.41003L41.7158 9.91002C41.4616 10.46 41.1728 11.0617 40.9523 11.5767C40.8085 11.8788 40.7222 12.2056 40.698 12.54C40.6865 12.6588 40.7008 12.7786 40.7399 12.8912C40.779 13.0037 40.842 13.1062 40.9244 13.1914C41.0069 13.2767 41.1067 13.3426 41.217 13.3845C41.3273 13.4265 41.4453 13.4434 41.5628 13.4342C41.9573 13.359 42.3324 13.2027 42.665 12.975C42.9975 12.7472 43.2805 12.4528 43.4963 12.11C43.4617 12.2682 43.4446 12.4297 43.4453 12.5917C43.4453 13.0217 43.5811 13.4342 44.1578 13.4342C44.5107 13.3859 44.8486 13.2591 45.1474 13.0629C45.4461 12.8666 45.6983 12.6058 45.8857 12.2992L45.4619 13.2992H46.887L48.0233 10.6684C48.6675 9.18919 49.3126 8.29502 49.9231 8.29502C49.9717 8.294 50.0191 8.31081 50.0564 8.34236C50.0938 8.3739 50.1186 8.41806 50.1263 8.46669V8.51836C49.9631 9.07665 49.7352 9.61343 49.4475 10.1175C49.215 10.6042 48.9956 11.0972 48.7893 11.5959C48.6379 11.901 48.5513 12.2348 48.535 12.5759C48.5247 12.6845 48.5383 12.7942 48.5747 12.8969C48.6111 12.9997 48.6695 13.093 48.7457 13.1703C48.8218 13.2475 48.9139 13.3067 49.0154 13.3437C49.1168 13.3807 49.225 13.3945 49.3323 13.3842C49.7627 13.3106 50.1726 13.1452 50.5352 12.8992C50.8977 12.6531 51.2046 12.3318 51.4354 11.9567C51.3355 12.25 51.284 12.5581 51.2831 12.8684C51.2639 13.0334 51.2809 13.2006 51.333 13.3582C51.385 13.5157 51.4709 13.6596 51.5844 13.7796C51.6979 13.8996 51.8362 13.9926 51.9894 14.052C52.1426 14.1115 52.3068 14.1358 52.4704 14.1234C52.9336 14.1179 53.3839 13.9677 53.7597 13.6934C54.2834 13.2782 54.7362 12.7788 55.1 12.215L54.8458 11.9742C54.541 12.4401 54.1694 12.8574 53.7433 13.2125C53.5397 13.3903 53.2828 13.4934 53.0143 13.505C52.709 13.505 52.5206 13.35 52.5206 12.9717C52.5834 12.4163 52.7384 11.8757 52.9789 11.3725C52.9789 11.3725 53.3689 10.4784 53.7425 9.63586C54.0477 8.91336 54.3529 8.22586 54.4007 8.08836H55.3337L55.5205 7.65836H54.6047L55.4876 5.63086Z" fill="#C4C4C4"/>
<path id="&#237;&#140;&#168;&#236;&#138;&#164; 4849" fill-rule="evenodd" clip-rule="evenodd" d="M61.7431 7.66676L63.0373 4.61426H61.5037L60.1938 7.66676H56.9487L56.3975 8.94009H59.6549L58.3623 11.9576H59.8959L61.2058 8.94009H64.4632L64.9972 7.66676H61.7431Z" fill="#C4C4C4"/>
</g>
</svg>
